<mxfile host="app.diagrams.net" modified="2022-11-02T21:19:43.748Z" agent="5.0 (Windows NT 10.0; Win64; x64) AppleWebKit/537.36 (KHTML, like Gecko) Chrome/107.0.0.0 Safari/537.36" etag="k1ri05WPbbXCrGDxSDP9" version="20.5.1" type="github">
  <diagram id="C5RBs43oDa-KdzZeNtuy" name="Page-1">
    <mxGraphModel dx="1865" dy="579" grid="1" gridSize="10" guides="1" tooltips="1" connect="1" arrows="1" fold="1" page="1" pageScale="1" pageWidth="827" pageHeight="1169" math="0" shadow="0">
      <root>
        <mxCell id="WIyWlLk6GJQsqaUBKTNV-0" />
        <mxCell id="WIyWlLk6GJQsqaUBKTNV-1" parent="WIyWlLk6GJQsqaUBKTNV-0" />
        <mxCell id="lmOlfO_AQ28KyDKmjRDE-27" style="edgeStyle=orthogonalEdgeStyle;rounded=0;orthogonalLoop=1;jettySize=auto;html=1;exitX=1;exitY=0.5;exitDx=0;exitDy=0;entryX=0.5;entryY=0;entryDx=0;entryDy=0;fontSize=12;" edge="1" parent="WIyWlLk6GJQsqaUBKTNV-1" source="lmOlfO_AQ28KyDKmjRDE-0" target="lmOlfO_AQ28KyDKmjRDE-12">
          <mxGeometry relative="1" as="geometry" />
        </mxCell>
        <mxCell id="lmOlfO_AQ28KyDKmjRDE-0" value="Start" style="ellipse;whiteSpace=wrap;html=1;" vertex="1" parent="WIyWlLk6GJQsqaUBKTNV-1">
          <mxGeometry x="-10" y="60" width="120" height="80" as="geometry" />
        </mxCell>
        <mxCell id="lmOlfO_AQ28KyDKmjRDE-11" style="edgeStyle=orthogonalEdgeStyle;rounded=0;orthogonalLoop=1;jettySize=auto;html=1;exitX=0.75;exitY=1;exitDx=0;exitDy=0;entryX=0.626;entryY=0.02;entryDx=0;entryDy=0;entryPerimeter=0;fontSize=12;" edge="1" parent="WIyWlLk6GJQsqaUBKTNV-1" source="lmOlfO_AQ28KyDKmjRDE-2" target="lmOlfO_AQ28KyDKmjRDE-9">
          <mxGeometry relative="1" as="geometry" />
        </mxCell>
        <mxCell id="lmOlfO_AQ28KyDKmjRDE-2" value="string user = &quot;seymur0308&quot;&lt;br&gt;string password = 12345&lt;br&gt;" style="rounded=1;whiteSpace=wrap;html=1;" vertex="1" parent="WIyWlLk6GJQsqaUBKTNV-1">
          <mxGeometry x="140" y="280" width="160" height="70" as="geometry" />
        </mxCell>
        <mxCell id="lmOlfO_AQ28KyDKmjRDE-17" style="edgeStyle=orthogonalEdgeStyle;rounded=0;orthogonalLoop=1;jettySize=auto;html=1;exitX=0.5;exitY=1;exitDx=0;exitDy=0;entryX=0.5;entryY=0;entryDx=0;entryDy=0;fontSize=12;" edge="1" parent="WIyWlLk6GJQsqaUBKTNV-1" source="lmOlfO_AQ28KyDKmjRDE-9" target="lmOlfO_AQ28KyDKmjRDE-16">
          <mxGeometry relative="1" as="geometry" />
        </mxCell>
        <mxCell id="lmOlfO_AQ28KyDKmjRDE-9" value="int ay = 0&lt;br&gt;int mebleg = 0&lt;br&gt;int faiz = 0&lt;br&gt;int odenilecegmebleg = 0&lt;br&gt;int sum = 0" style="rounded=1;whiteSpace=wrap;html=1;fontSize=12;" vertex="1" parent="WIyWlLk6GJQsqaUBKTNV-1">
          <mxGeometry x="160" y="400" width="160" height="90" as="geometry" />
        </mxCell>
        <mxCell id="lmOlfO_AQ28KyDKmjRDE-14" style="edgeStyle=orthogonalEdgeStyle;rounded=0;orthogonalLoop=1;jettySize=auto;html=1;exitX=0.5;exitY=1;exitDx=0;exitDy=0;entryX=0.5;entryY=0;entryDx=0;entryDy=0;fontSize=12;" edge="1" parent="WIyWlLk6GJQsqaUBKTNV-1" source="lmOlfO_AQ28KyDKmjRDE-12" target="lmOlfO_AQ28KyDKmjRDE-2">
          <mxGeometry relative="1" as="geometry" />
        </mxCell>
        <mxCell id="lmOlfO_AQ28KyDKmjRDE-12" value="Input Username and Password" style="rounded=1;whiteSpace=wrap;html=1;fontSize=12;" vertex="1" parent="WIyWlLk6GJQsqaUBKTNV-1">
          <mxGeometry x="160" y="160" width="120" height="60" as="geometry" />
        </mxCell>
        <mxCell id="lmOlfO_AQ28KyDKmjRDE-19" style="edgeStyle=orthogonalEdgeStyle;rounded=0;orthogonalLoop=1;jettySize=auto;html=1;exitX=0.5;exitY=1;exitDx=0;exitDy=0;fontSize=12;" edge="1" parent="WIyWlLk6GJQsqaUBKTNV-1" source="lmOlfO_AQ28KyDKmjRDE-16" target="lmOlfO_AQ28KyDKmjRDE-18">
          <mxGeometry relative="1" as="geometry" />
        </mxCell>
        <mxCell id="lmOlfO_AQ28KyDKmjRDE-16" value="1.Kredit goturmek&lt;br&gt;2.Kredit odemek&lt;br&gt;3.Hesabat" style="rounded=1;whiteSpace=wrap;html=1;fontSize=12;" vertex="1" parent="WIyWlLk6GJQsqaUBKTNV-1">
          <mxGeometry x="180" y="530" width="120" height="60" as="geometry" />
        </mxCell>
        <mxCell id="lmOlfO_AQ28KyDKmjRDE-21" style="edgeStyle=orthogonalEdgeStyle;rounded=0;orthogonalLoop=1;jettySize=auto;html=1;exitX=0.5;exitY=1;exitDx=0;exitDy=0;fontSize=12;" edge="1" parent="WIyWlLk6GJQsqaUBKTNV-1" source="lmOlfO_AQ28KyDKmjRDE-18" target="lmOlfO_AQ28KyDKmjRDE-20">
          <mxGeometry relative="1" as="geometry" />
        </mxCell>
        <mxCell id="lmOlfO_AQ28KyDKmjRDE-18" value="user input value sum" style="rounded=1;whiteSpace=wrap;html=1;fontSize=12;" vertex="1" parent="WIyWlLk6GJQsqaUBKTNV-1">
          <mxGeometry x="180" y="620" width="120" height="60" as="geometry" />
        </mxCell>
        <mxCell id="lmOlfO_AQ28KyDKmjRDE-25" style="edgeStyle=orthogonalEdgeStyle;rounded=0;orthogonalLoop=1;jettySize=auto;html=1;exitX=0.5;exitY=1;exitDx=0;exitDy=0;fontSize=12;" edge="1" parent="WIyWlLk6GJQsqaUBKTNV-1" source="lmOlfO_AQ28KyDKmjRDE-20" target="lmOlfO_AQ28KyDKmjRDE-24">
          <mxGeometry relative="1" as="geometry" />
        </mxCell>
        <mxCell id="lmOlfO_AQ28KyDKmjRDE-20" value="int pay" style="rounded=1;whiteSpace=wrap;html=1;fontSize=12;" vertex="1" parent="WIyWlLk6GJQsqaUBKTNV-1">
          <mxGeometry x="210" y="750" width="120" height="60" as="geometry" />
        </mxCell>
        <mxCell id="lmOlfO_AQ28KyDKmjRDE-28" style="edgeStyle=orthogonalEdgeStyle;rounded=0;orthogonalLoop=1;jettySize=auto;html=1;exitX=1;exitY=0.5;exitDx=0;exitDy=0;entryX=0;entryY=0.5;entryDx=0;entryDy=0;fontSize=12;" edge="1" parent="WIyWlLk6GJQsqaUBKTNV-1" source="lmOlfO_AQ28KyDKmjRDE-24" target="lmOlfO_AQ28KyDKmjRDE-26">
          <mxGeometry relative="1" as="geometry" />
        </mxCell>
        <mxCell id="lmOlfO_AQ28KyDKmjRDE-24" value="value report" style="rounded=1;whiteSpace=wrap;html=1;fontSize=12;" vertex="1" parent="WIyWlLk6GJQsqaUBKTNV-1">
          <mxGeometry x="190" y="860" width="120" height="60" as="geometry" />
        </mxCell>
        <mxCell id="lmOlfO_AQ28KyDKmjRDE-26" value="End" style="ellipse;whiteSpace=wrap;html=1;fontSize=12;" vertex="1" parent="WIyWlLk6GJQsqaUBKTNV-1">
          <mxGeometry x="410" y="870" width="120" height="80" as="geometry" />
        </mxCell>
      </root>
    </mxGraphModel>
  </diagram>
</mxfile>
